<?xml version="1.0" encoding="UTF-8"?>
<svg width="210mm" height="297mm" version="1.1" viewBox="0 0 744.09448819 1052.3622047" xmlns="http://www.w3.org/2000/svg">
 <g transform="translate(20.203 42.426)">
  <path d="m45.174 243.83c-29.07 35.646-28.755 88.221-9.8897 128.73 25.961 58.354 86.864 102.05 150.53 97.128 36.547-2.8023 71.264-27.215 83.858-63.076 18.554-50.105-0.59928-107.64-35.25-145.32-35.564-40.018-92.765-64.014-144.83-47.695-17.134 5.8078-32.697 16.068-44.416 30.228z" fill="#6c5353"/>
  <path d="m55.585 287.95c-14.046 34.835-2.3532 77.529 20.631 106.68 32.197 42.237 87.42 65.526 134.12 48.725 26.814-9.6274 47.547-36.462 49.182-68.159 3.0046-44.48-23.907-87.421-58.118-111.09-35.408-25.395-83.561-33.408-119.08-9.668-11.592 8.1686-21.034 19.642-26.742 33.514z" fill="#483737"/>
  <ellipse transform="matrix(.8727 .48825 -.51114 .8595 0 0)" cx="669.27" cy="26.439" rx="118.1" ry="144.24" fill="#6c5353"/>
  <path d="m624.7 245.52c-34.835-14.046-77.529-2.3532-106.68 20.631-42.237 32.197-65.526 87.42-48.725 134.12 9.6274 26.814 36.462 47.547 68.159 49.182 44.48 3.0046 87.421-23.906 111.09-58.118 25.395-35.408 33.408-83.561 9.668-119.08-8.1686-11.592-19.642-21.034-33.514-26.742z" fill="#483737"/>
  <ellipse cx="354.87" cy="497.2" rx="335.97" ry="248.1" fill="#6c5353"/>
  <ellipse cx="215.37" cy="455.82" rx="31.013" ry="33.597" fill="#1a1a1a"/>
  <ellipse cx="357.43" cy="604.99" rx="116.3" ry="91.745" fill="#483737"/>
  <path d="m360.04 582.45s-23.259 80.116-56.856 64.609" fill="none" stroke="#000" stroke-width="5.1168"/>
  <path d="m356.28 582.45s23.259 80.116 56.856 64.609" fill="none" stroke="#000" stroke-width="5.1168"/>
  <path transform="matrix(1.0171 0 0 .93472 16.489 -168.15)" d="m369.72 767.51-34.026 60.018-34.994-59.452z" fill="#241c1c"/>
  <ellipse cx="491.89" cy="455.82" rx="31.013" ry="33.597" fill="#1a1a1a"/>
 </g>
</svg>
