<?xml version='1.0' encoding='utf-8'?>
<svg xmlns="http://www.w3.org/2000/svg" version="1.1" width="600px" height="976px" viewBox="0 0 600 976"> <g id="layer1"> <g style="fill:rgb(0,0,0); fill-opacity:1.0; stroke-linejoin: miter"> <path d="M297.60715,-1223.2991C302.9745,-1223.2991,305.9838,-1217.3153,310.8289,-1197.9221C317.50076,-1171.6252,321.13358,-1159.0754,323.83426,-1156.3928C327.01398,-1152.5712,327.2163,-1150.5032,325.5784,-1150.5032C324.27655,-1150.5032,321.81213,-1151.8096,318.75613,-1154.5803C313.65506,-1159.3489,311.24344,-1164.7239,311.22,-1171.6028C311.20096,-1176.9866,307.26593,-1190.4319,302.14288,-1201.4807C297.31964,-1212.2317,293.1009,-1221.4895,293.09845,-1222.0872C293.0965,-1222.6858,295.1883,-1223.2913,297.58087,-1223.2991 Z M427.35687,-1325.001C430.31516,-1325.001,433.6512,-1322.7106,441.11923,-1317.715C474.69684,-1295.1007,492.7783,-1255.9805,484.8159,-1223.3516C480.98193,-1207.7853,467.32526,-1178.426,463.1441,-1176.6165C461.65045,-1176.0139,460.7608,-1173.9172,460.76715,-1172.1223C460.78375,-1167.3372,431.56653,-1140.018,426.48206,-1139.9994C424.08948,-1139.9916,421.99963,-1138.7885,422.00598,-1136.9935C422.0177,-1133.7035,402.89517,-1127.9535,391.52948,-1127.9144C391.4926,-1127.9143,391.4559,-1127.9142,391.4193,-1127.9142C385.81198,-1127.9142,383.14954,-1129.4016,383.13837,-1132.6703C383.1291,-1135.3627,377.11786,-1143.7162,369.61447,-1151.1683C353.80038,-1166.8727,352.08792,-1173.4934,364.01974,-1173.4941L364.02338,-1173.4941C365.22485,-1173.494,366.56464,-1173.4269,368.0422,-1173.2952C369.55618,-1173.163,370.93634,-1173.0864,372.2333,-1173.0864C379.39423,-1173.0864,384.01907,-1175.4171,394.62665,-1183.5579C402.97818,-1190.1672,409.5363,-1196.47,409.8317,-1197.6682C409.82632,-1199.1633,412.7985,-1204.5579,416.37024,-1209.6545C421.4308,-1216.551,423.19836,-1224.3342,424.03137,-1242.881C425.42834,-1271.2999,420.8766,-1290.1271,410.67105,-1300.5607C402.86734,-1308.3107,403.4606,-1309.8077,418.37854,-1320.3282C422.61896,-1323.3596,424.85254,-1325.001,427.35687,-1325.001 Z M668.4591,-1452.6106C671.2101,-1452.6106,672.1586,-1451.043,672.1691,-1448.0261C672.18475,-1443.5398,643.67163,-1385.7146,640.3899,-1383.3113C638.00366,-1381.5076,626.42114,-1357.8397,621.678,-1345.5594C619.6018,-1340.4677,614.5857,-1320.7098,603.9759,-1275.21C602.5003,-1269.5225,599.84406,-1259.3428,598.0721,-1252.7568C596.3006,-1246.1699,593.64386,-1235.9922,592.1678,-1230.3037C590.9915,-1224.6172,587.74054,-1213.2394,585.37726,-1204.8575C583.012,-1196.7726,577.7015,-1175.8175,573.2747,-1158.4542C568.84906,-1141.0912,564.1215,-1124.3256,562.63763,-1121.0306C561.4521,-1117.7367,554.0522,-1095.5775,546.65765,-1071.6244C538.9643,-1047.6694,531.5625,-1025.8091,530.07666,-1023.1118C528.292,-1020.1157,527.1113,-1015.6255,527.1196,-1013.23193C527.1279,-1010.83936,525.94727,-1006.34814,524.4619,-1003.35205C522.9761,-1000.6558,518.2383,-986.88043,513.8003,-972.8072C509.06396,-958.734,504.32178,-946.1549,503.13086,-944.6549C501.6416,-942.8551,500.45755,-939.2623,500.4678,-936.2711C500.47855,-933.2799,499.29056,-930.8834,497.49564,-930.8766C496.00052,-930.8717,494.5142,-928.1754,494.52542,-924.8854C494.53714,-921.59534,493.35843,-916.50555,491.87308,-913.50946C488.0098,-906.31805,476.7345,-880.2576,476.73987,-878.76154C476.7428,-877.86505,472.88586,-868.87775,468.13635,-858.39343C463.38782,-847.9081,456.56018,-832.93054,452.99966,-824.54285C449.1398,-816.453,441.12564,-798.77826,434.8903,-785.5966C428.35565,-772.414,423.31366,-760.1338,423.32,-758.33887C423.3327,-754.75,396.30246,-700.5186,388.26828,-688.5274C379.04614,-674.1378,375.77515,-668.7423,373.10376,-662.7521C371.61987,-659.45715,361.49927,-645.3634,350.48172,-631.2677C339.46414,-617.17206,329.3416,-603.6779,328.15363,-601.28046C327.13342,-599.54517,325.97308,-598.5658,324.46838,-598.5658C318.9558,-598.5658,308.82108,-611.7103,284.0204,-648.9835C266.8837,-674.3478,253.05264,-695.2364,253.05069,-695.835C253.04971,-696.13385,250.94571,-699.11725,248.54338,-701.80084C229.02045,-725.3623,208.57175,-756.9951,195.91844,-783.2724C187.48389,-800.59076,179.65138,-816.7147,178.1465,-819.40125C176.03908,-823.2831,178.42287,-825.9823,190.36475,-832.30554C205.88864,-840.7333,208.87009,-843.4354,231.5141,-868.6385C238.6635,-877.0389,249.3969,-886.9461,255.36514,-890.8543C267.89587,-899.8709,269.98227,-901.9714,278.01743,-913.66473C286.35043,-925.65784,288.11505,-934.3375,290.67413,-972.6314C292.37433,-999.85504,293.54962,-1005.84033,299.21222,-1011.84326C302.7874,-1015.7427,305.76398,-1019.9409,305.75763,-1021.73584C305.75275,-1023.23096,308.42853,-1027.727,311.70438,-1031.9253C316.46902,-1037.9243,317.64334,-1044.2095,317.5789,-1062.7534C317.53543,-1075.3158,316.29324,-1088.4711,314.48758,-1091.7552C312.98074,-1095.0404,309.97098,-1100.4135,308.16388,-1103.9965C305.26773,-1109.7386,305.3334,-1112.1721,310.72183,-1112.1721C313.73862,-1112.1721,318.4238,-1111.4093,325.19168,-1110.0375C337.2763,-1107.6993,349.82428,-1106.5579,362.3842,-1106.5579C392.44128,-1106.5579,422.56656,-1113.0951,446.57236,-1125.4135C449.5577,-1126.9193,454.04013,-1128.1312,456.4332,-1128.14C458.82574,-1128.1478,460.91412,-1129.6508,460.90924,-1131.1469C460.9029,-1132.9408,462.3941,-1134.142,464.18854,-1134.1478C469.57233,-1134.1674,497.01657,-1155.1984,509.53168,-1168.7023C515.49066,-1175.3029,524.7172,-1188.4952,529.46967,-1198.0831C537.787,-1214.5626,538.3734,-1217.8546,538.26355,-1249.5586C538.15564,-1280.6641,537.5438,-1284.5508,530.01556,-1299.1797C514.05804,-1329.6327,500.56784,-1338.5585,452.66904,-1350.9551C451.17197,-1351.249,453.85654,-1353.3516,458.63535,-1355.4619C463.71246,-1357.5732,472.67096,-1361.792,478.9414,-1364.8046C485.50974,-1368.1171,492.38083,-1370.534,494.7734,-1370.5428C497.16647,-1370.5507,498.95602,-1372.0526,498.95065,-1373.5477C498.9443,-1375.3427,500.73483,-1376.5448,503.12787,-1376.5536C507.91302,-1376.5702,534.4828,-1391.0183,540.1454,-1396.7214C544.61804,-1400.9236,552.67957,-1404.8406,587.02765,-1418.7175C615.4021,-1430.1824,625.8552,-1434.7058,649.7444,-1445.8552C659.4465,-1450.4237,665.20996,-1452.6106,668.4591,-1452.6106 Z M-357.3417,-430.3829C-355.52664,-430.3829,-353.42926,-430.1034,-350.80212,-429.63528C-328.05798,-425.82474,-307.06143,-408.85016,-283.01947,-375.733C-274.34808,-363.68283,-272.41028,-359.33127,-276.3564,-359.33127C-277.19766,-359.33127,-278.30637,-359.52905,-279.67426,-359.89218C-295.90668,-364.1761,-312.4806,-366.1908,-332.86017,-366.1908C-339.16577,-366.1908,-345.8357,-365.99792,-352.97253,-365.61972C-354.38416,-365.57074,-355.70477,-365.54163,-357.02365,-365.54163C-364.64612,-365.54163,-372.21063,-366.51468,-396.95642,-370.25354C-402.3436,-371.13147,-406.83823,-373.5094,-406.84457,-375.30334C-406.8724,-383.37952,-399.13562,-394.77112,-389.8861,-401.3834C-384.515,-404.9908,-380.0433,-409.1939,-380.0472,-410.3902C-380.0516,-411.5865,-375.88168,-416.68607,-371.1146,-422.08646C-365.20856,-428.2545,-362.3501,-430.3829,-357.3417,-430.3829 Z M-148.8747,-764.12897C-148.2747,-764.12897,-142.87537,-759.36316,-137.1744,-753.7022C-126.97778,-743.57635,-94.355774,-725.4649,-85.94997,-725.4649C-85.943405,-725.4649,-85.93685,-725.46497,-85.93032,-725.46497L-85.92211,-725.46497C-83.83029,-725.46497,-81.43294,-722.4847,-80.8229,-718.90247C-79.91226,-715.0177,-78.39273,-708.1437,-77.47818,-703.06165C-76.26529,-698.2804,-74.425446,-685.42596,-72.89323,-674.66327C-71.36002,-663.9006,-68.90641,-646.2629,-67.0739,-635.5012C-62.486008,-606.2063,-69.447426,-543.6702,-79.54703,-523.59607C-85.7853,-511.3109,-89.36244,-507.71033,-99.81799,-504.08337C-109.377556,-500.76013,-120.71006,-491.1498,-143.95418,-466.5434C-161.23885,-448.2378,-177.62164,-428.73978,-180.59233,-423.04642C-183.2647,-417.355,-190.398,-404.46832,-196.04642,-394.57867C-207.04689,-375.39902,-212.39357,-364.61288,-218.32082,-349.0387C-220.39601,-343.64807,-223.07227,-339.15198,-223.96973,-339.14905L-223.97441,-339.14905C-228.17174,-339.14905,-247.66829,-358.81076,-252.48532,-368.36093C-255.1938,-373.43433,-258.49686,-377.90683,-259.99313,-377.90683L-259.99872,-377.90683C-261.4954,-377.90683,-264.49872,-382.08228,-266.9072,-387.15485C-272.93158,-399.39703,-296.9604,-428.3257,-301.14835,-428.61087L-301.1559,-428.61087C-302.9525,-428.61087,-306.2436,-430.6904,-308.3422,-433.0718C-313.73572,-439.6179,-329.25232,-446.4264,-338.53198,-446.4264C-338.55386,-446.4264,-338.5757,-446.42633,-338.59753,-446.42627C-338.6271,-446.42618,-338.65677,-446.42612,-338.68658,-446.42612C-343.1784,-446.42612,-350.29413,-447.59424,-354.46033,-449.3628C-361.3475,-451.73096,-362.2518,-453.82178,-362.29233,-465.48682C-362.3475,-481.33835,-357.60434,-493.61765,-345.98572,-506.81976C-334.96277,-519.4194,-329.31384,-529.309,-319.81876,-551.17615C-317.4457,-556.86755,-313.88565,-565.2543,-311.80655,-569.4496C-308.24405,-577.23865,-279.6684,-616.81866,-266.2617,-632.11847C-262.68747,-636.31866,-253.15573,-647.7171,-244.81538,-657.6164C-236.7739,-667.51483,-223.66551,-682.51483,-215.91747,-690.6174C-208.46875,-699.0187,-199.52832,-708.3224,-196.54933,-711.921C-193.5713,-715.5206,-181.9512,-728.422,-170.63042,-741.32336C-159.30817,-753.9239,-149.4732,-764.127,-148.87506,-764.12897 Z M2980.3171,-2778.9456C2980.074,-2778.9456,2979.8274,-2778.9453,2979.5771,-2778.9443C2971.5022,-2778.917,2962.2336,-2777.6885,2959.2493,-2775.8828C2956.5627,-2774.379,2948.797,-2771.0615,2942.2268,-2768.3467C2935.6555,-2765.6318,2927.8918,-2762.0166,2925.2043,-2760.5107C2922.22,-2759.005,2918.0364,-2757.794,2915.9426,-2757.787C2913.8489,-2757.7803,2906.381,-2755.0615,2899.513,-2751.748C2892.9446,-2748.4346,2884.5793,-2745.7139,2881.2893,-2745.7031C2877.9993,-2745.6914,2874.7134,-2744.4834,2873.8208,-2742.9844C2872.9282,-2741.7852,2865.7622,-2738.171,2857.9956,-2735.4531C2842.7603,-2730.0166,2836.4878,-2727.3018,2824.2427,-2722.1758C2820.061,-2720.665,2811.9956,-2717.6455,2806.3208,-2715.5332C2800.644,-2713.42,2791.982,-2710.0996,2786.9048,-2707.9883C2782.1255,-2706.1768,2773.4646,-2702.5576,2768.3875,-2700.4463C2759.7253,-2697.126,2758.535,-2695.3271,2758.569,-2685.457C2758.615,-2672.297,2757.1228,-2671.3948,2695.2947,-2646.6545C2682.7498,-2641.5256,2666.0254,-2634.5881,2657.962,-2630.972C2650.1973,-2627.6545,2640.6406,-2623.4338,2637.0566,-2621.925C2633.1738,-2620.4163,2627.2002,-2618.0032,2623.6152,-2616.4944C2619.7334,-2614.9866,2610.4746,-2611.0667,2602.71,-2607.4495C2594.9468,-2603.8337,2587.7788,-2601.118,2586.8813,-2601.115C2586.2827,-2601.113,2577.9204,-2597.494,2568.3638,-2593.2732C2558.8071,-2589.0535,2548.355,-2584.2312,2545.0688,-2583.0232C2541.7837,-2581.8152,2532.8237,-2577.8953,2525.06,-2574.28C2517.2964,-2570.6638,2510.127,-2567.947,2509.2305,-2567.943C2508.632,-2567.9412,2500.867,-2564.6248,2492.2068,-2560.7068C2483.5466,-2556.7878,2470.405,-2551.3582,2462.9382,-2548.3425C2455.47,-2545.6238,2444.717,-2541.3992,2439.0437,-2538.6882C2433.369,-2536.2751,2425.9036,-2532.9597,2422.6174,-2531.7517C2404.997,-2524.2126,2393.3486,-2519.3865,2384.6885,-2515.4685C2379.3135,-2513.0574,2367.9644,-2508.2324,2359.6006,-2504.913C2351.238,-2501.594,2337.7976,-2496.1633,2329.7341,-2492.547C2321.6711,-2488.93,2312.413,-2485.009,2309.128,-2483.5022C2305.8423,-2482.2952,2299.2715,-2479.5793,2294.1943,-2477.468C2289.416,-2475.3577,2282.546,-2472.6428,2279.2598,-2471.4348C2275.975,-2469.927,2267.314,-2466.3079,2259.8481,-2462.9924C2237.749,-2453.0452,2213.5576,-2442.7922,2201.0125,-2437.9622C2197.1296,-2436.4543,2191.156,-2434.0403,2187.572,-2432.5325C2183.6892,-2431.0237,2175.9238,-2427.7068,2170.2495,-2425.2947C2164.5752,-2422.8826,2153.525,-2418.0574,2145.7612,-2414.4421C2137.996,-2411.1248,2129.6323,-2408.1042,2127.5386,-2408.0974C2125.4448,-2408.0906,2122.4575,-2406.8835,2120.9668,-2405.6824C2119.1768,-2404.1804,2110.518,-2399.9626,2101.5574,-2396.3435C2092.5984,-2392.4236,2080.3528,-2387.2957,2074.6785,-2384.8835C2060.9412,-2378.8542,2050.786,-2374.6316,2043.3186,-2371.9128C2040.0334,-2370.407,2030.7751,-2366.486,2023.0095,-2363.1687C2015.246,-2359.5525,2003.0009,-2354.4265,1996.1307,-2351.7097C1989.2611,-2348.9949,1982.393,-2345.6804,1980.6039,-2344.1785C1979.1127,-2342.9773,1974.9291,-2341.7664,1971.0409,-2341.7527C1967.1527,-2341.739,1964.1664,-2340.533,1964.1722,-2338.738C1964.1776,-2337.243,1961.4912,-2335.738,1958.5,-2335.7273C1955.21,-2335.7166,1951.9238,-2334.5076,1951.0322,-2333.0095C1950.1396,-2331.5117,1945.6606,-2329.4023,1941.4766,-2328.4902C1937.2935,-2327.2793,1927.436,-2323.6563,1919.6704,-2320.3389C1912.206,-2316.7236,1902.9474,-2312.8037,1899.3634,-2311.295C1895.4801,-2309.7861,1889.5065,-2307.373,1885.923,-2305.8643C1882.0397,-2304.3555,1872.7809,-2300.4355,1865.0172,-2296.8193C1857.253,-2293.2031,1849.7848,-2290.4854,1848.8878,-2290.4814C1847.9905,-2290.4785,1842.3152,-2288.3662,1836.3425,-2285.6533C1830.071,-2282.9395,1822.3059,-2279.623,1818.7224,-2278.1143C1814.8386,-2276.6055,1808.8655,-2274.1924,1805.2815,-2272.6836C1801.3982,-2271.1748,1792.1399,-2267.254,1784.3763,-2263.6387C1776.6117,-2260.0225,1769.1439,-2257.3047,1768.2465,-2257.3008C1767.3495,-2257.2979,1761.6737,-2255.1846,1755.701,-2252.4727C1749.4298,-2249.759,1741.963,-2246.7424,1738.6779,-2245.2346C1729.4186,-2241.6135,1718.965,-2237.39,1703.7346,-2230.4583C1695.971,-2226.8423,1688.5027,-2224.1245,1687.6057,-2224.1206C1686.7083,-2224.1177,1681.033,-2222.0044,1675.0603,-2219.2925C1668.7883,-2216.5776,1661.3225,-2213.2622,1658.0364,-2212.0542C1654.7509,-2210.8462,1647.285,-2207.5308,1641.6102,-2205.1187C1635.9359,-2202.7056,1620.4052,-2196.3706,1607.2635,-2190.941C1574.4082,-2177.6675,1573.2134,-2177.3638,1557.3862,-2170.1304C1549.6221,-2166.5142,1542.1538,-2163.7964,1540.6587,-2163.7905C1539.1631,-2163.7856,1531.0992,-2160.4673,1522.7389,-2156.2524C1514.0797,-2152.0347,1506.0153,-2148.7163,1504.2208,-2148.7104C1502.4264,-2148.7036,1498.8414,-2147.4956,1495.8561,-2145.9888C1483.9137,-2139.6665,1462.1112,-2130.618,1458.5219,-2130.6052C1456.4286,-2130.5984,1453.4413,-2129.3914,1451.9501,-2128.1902C1449.2665,-2125.7878,1437.6187,-2120.9626,1400.5815,-2106.1777C1377.5825,-2097.125,1367.7272,-2092.9033,1348.9132,-2084.463C1339.9537,-2080.544,1324.4225,-2074.209,1314.566,-2070.287C1304.7087,-2066.663,1290.97,-2060.9326,1284.1008,-2057.917C1277.2322,-2054.9033,1259.0134,-2047.3623,1243.7802,-2041.3271C1228.5472,-2035.293,1210.3285,-2027.752,1203.4598,-2024.7363C1196.5907,-2021.7217,1178.3721,-2014.1818,1163.1392,-2008.1466C1147.9058,-2002.1124,1130.8813,-1995.173,1125.2065,-1992.7609C1099.5242,-1981.307,1072.9412,-1970.7455,1069.3518,-1970.7328C1066.9592,-1970.725,1065.1687,-1969.5219,1065.175,-1967.7269C1065.1799,-1966.2318,1062.1946,-1964.7269,1058.3064,-1964.7133C1054.4183,-1964.6996,1050.2347,-1963.4886,1048.7435,-1962.2875C1046.3583,-1960.1849,1030.2308,-1953.2494,983.038,-1934.5415C979.7524,-1933.3335,970.79346,-1929.4146,963.0293,-1925.7983C955.26514,-1922.1821,947.79736,-1919.4653,946.6006,-1919.4604C944.5073,-1919.4536,931.962,-1914.6235,897.9137,-1900.4478C888.3551,-1896.8257,882.6803,-1894.4136,860.57587,-1886.2612C838.17267,-1877.8093,823.24005,-1871.4753,816.67224,-1867.864C813.6864,-1866.3572,808.90466,-1865.1443,805.91394,-1865.1346C802.9232,-1865.1239,799.3373,-1864.2147,798.4437,-1863.0145C796.3573,-1860.9149,760.5097,-1848.2274,705.2398,-1830.0907C687.3145,-1824.0458,669.6891,-1818.0028,666.40295,-1816.7948C663.1173,-1815.5868,655.05286,-1812.2684,648.4811,-1809.8534C641.9103,-1807.1385,631.15546,-1803.5126,624.5827,-1801.3964C618.00995,-1799.2792,611.4401,-1796.2655,609.6496,-1795.0624C608.1584,-1793.8612,604.5734,-1792.6522,601.5823,-1792.6425C598.59155,-1792.6317,593.8103,-1791.419,590.82446,-1789.9121C588.13745,-1788.4082,579.1765,-1785.0869,570.8113,-1782.3652C544.51886,-1774.1992,515.54285,-1763.6299,513.4564,-1761.5283C512.56335,-1760.3291,508.37927,-1759.418,504.78992,-1759.4053C500.90176,-1759.3926,497.01797,-1758.1816,496.12686,-1756.3848C495.23477,-1754.8848,490.4545,-1753.373,485.36954,-1753.3555C480.5844,-1753.3389,476.69916,-1752.4277,476.70355,-1751.2314C476.70844,-1749.7363,468.04736,-1746.1174,457.29105,-1742.7893C446.53372,-1739.762,437.8731,-1736.1418,437.877,-1734.9456C437.88043,-1734.0491,434.5987,-1731.6448,430.71637,-1729.8372C423.5484,-1726.8206,421.16318,-1724.719,400.88293,-1707.8987C395.81213,-1703.6936,386.86243,-1697.0833,381.1935,-1693.1742C375.5236,-1689.267,370.15445,-1685.0609,369.2609,-1684.1605C364.79214,-1679.0599,335.25754,-1657.1234,332.56564,-1657.1136C329.57443,-1657.1029,312.2693,-1644.7806,295.26883,-1630.9633C290.7957,-1627.059,285.12384,-1624.0482,282.73077,-1624.0404C280.03888,-1624.0306,276.4549,-1622.5228,274.6668,-1620.722C273.27756,-1619.3228,269.36642,-1618.5785,263.4629,-1618.5785C260.5004,-1618.5785,257.03616,-1618.7659,253.13708,-1619.152C242.96474,-1620.0143,227.10686,-1621.7535,217.53217,-1622.6178C214.80836,-1622.8597,212.33138,-1622.9911,210.06674,-1622.9911C196.16257,-1622.9911,190.26395,-1618.0413,184.39891,-1603.361C178.76414,-1589.5826,184.81688,-1569.2644,198.62251,-1555.5544L209.4267,-1545.1228L188.55563,-1526.2078C175.73584,-1514.199,163.50197,-1505.781,156.03175,-1503.6628C149.15872,-1501.8435,139.01372,-1494.9294,130.36871,-1486.5243C122.91804,-1478.7225,113.08016,-1469.4159,108.60654,-1465.8114C104.43222,-1461.9081,100.862404,-1456.5126,100.873634,-1453.2225C100.893166,-1447.539,88.093376,-1429.8485,71.105125,-1412.4413C66.33609,-1407.6396,61.278477,-1399.8457,59.498695,-1395.6514C56.536785,-1387.2666,35.34395,-1374.9298,23.978241,-1374.8907L23.962831,-1374.8907C19.774557,-1374.8907,13.1775255,-1380.8525,3.2731886,-1394.2607C-4.5397882,-1404.7012,-13.845927,-1414.539,-17.140844,-1416.0233C-20.43625,-1417.5077,-29.124714,-1421.6649,-36.015816,-1425.2294C-44.537846,-1429.321,-55.002445,-1431.3379,-65.91298,-1431.3379C-79.5508,-1431.3379,-93.88534,-1428.1866,-105.993744,-1421.997C-108.97958,-1420.4901,-113.462,-1419.2782,-116.4532,-1419.2684C-122.13581,-1419.2479,-138.86772,-1414.1053,-150.21536,-1408.9813C-165.44534,-1402.0499,-181.8247,-1381.6544,-196.96971,-1350.1964C-205.28415,-1332.8196,-213.88815,-1312.7502,-215.65718,-1305.2668C-217.72456,-1297.7815,-220.38667,-1289.0989,-221.57124,-1285.804C-223.9438,-1279.8147,-226.88472,-1265.4475,-233.3471,-1231.6273C-235.4057,-1221.4496,-237.76556,-1211.8715,-238.95695,-1210.3715C-240.73967,-1207.0746,-271.78357,-1189.0219,-298.95444,-1175.4681C-307.9105,-1170.6508,-320.74738,-1163.7269,-327.3133,-1159.5171C-333.8802,-1155.606,-344.3284,-1149.8862,-350.30106,-1147.1743C-356.57156,-1144.1616,-361.64484,-1140.8541,-361.64044,-1139.6578C-361.63507,-1138.1627,-363.12775,-1137.2594,-364.62335,-1137.2545C-366.4178,-1137.2487,-375.3743,-1132.4313,-384.62527,-1126.4176C-393.5076,-1120.6432,-399.57388,-1117.7737,-403.48578,-1117.7737C-407.72256,-1117.7737,-409.43222,-1121.1396,-409.45532,-1127.8268C-409.47192,-1132.6129,-410.9851,-1137.691,-412.48364,-1138.5836C-414.2815,-1139.4752,-415.489,-1142.7604,-415.50073,-1146.0504C-415.511,-1149.0416,-420.33423,-1159.7926,-426.05197,-1169.942C-431.76974,-1180.0913,-436.5886,-1189.646,-436.59396,-1191.1411C-436.59885,-1192.6372,-437.80783,-1196.2222,-439.3137,-1199.2075C-440.81857,-1201.894,-443.23117,-1207.5688,-444.74094,-1211.7505C-452.2834,-1230.5679,-470.04755,-1264.3042,-487.19156,-1291.7621C-492.3063,-1300.4183,-496.82047,-1308.4779,-496.82584,-1309.973C-496.82974,-1311.1693,-499.5343,-1314.7504,-502.8346,-1317.7289C-506.1349,-1320.7094,-508.83948,-1324.2885,-508.84436,-1325.7845C-508.84973,-1327.2797,-502.005,-1337.1732,-493.36978,-1348.2699C-473.71646,-1373.4623,-449.35562,-1421.1046,-449.4025,-1434.5636C-449.42105,-1439.9474,-447.6442,-1445.0381,-445.5529,-1445.6426C-445.0588,-1445.892,-443.74533,-1446.0076,-441.82578,-1446.0076C-436.78513,-1446.0076,-427.56528,-1445.2103,-418.02997,-1443.9443C-402.87018,-1442.0032,-367.45285,-1441.0774,-330.04846,-1441.0774C-283.28513,-1441.0774,-233.41588,-1442.5244,-216.14302,-1445.2432C-161.43654,-1453.5087,-145.00247,-1458.3514,-102.6002,-1478.2382C-70.64956,-1493.6033,-47.98211,-1511.9275,-27.440634,-1539.8142C-6.9006248,-1568.0017,-2.7458458,-1577.2878,4.910393,-1612.0094C7.8537483,-1625.7789,7.8151746,-1636.8453,4.718499,-1667.3423C2.850826,-1688.273,-0.51684487,-1710.6938,-2.334225,-1717.2681C-7.1769915,-1733.7017,-23.686245,-1750.6918,-37.45185,-1752.7377C-74.859024,-1758.5912,-178.06786,-1764.2142,-335.40796,-1768.4535C-396.13058,-1770.0377,-449.0773,-1771.9479,-452.6691,-1772.5338C-459.85315,-1774.3033,-477.57968,-1797.2721,-477.60654,-1805.0485C-477.6158,-1807.7377,-478.81662,-1809.8258,-480.01154,-1809.8258L-480.01752,-1809.8258C-481.21582,-1809.8258,-484.51773,-1813.7003,-487.52353,-1818.4741C-490.23203,-1823.2495,-497.14365,-1832.4985,-502.54987,-1839.06C-507.6573,-1845.6226,-518.77155,-1859.3413,-527.1812,-1869.4819C-535.2925,-1879.6235,-546.10345,-1892.1477,-550.60834,-1897.5159C-555.11224,-1902.5852,-571.94183,-1925.5568,-587.5736,-1948.2345C-603.5053,-1971.2103,-619.13226,-1992.391,-622.1357,-1995.9711C-625.43695,-1999.2494,-635.65076,-2012.0745,-645.2655,-2024.6038C-675.3118,-2063.9797,-690.6258,-2081.2747,-719.7347,-2108.9895C-751.2433,-2138.7908,-751.5436,-2139.0886,-774.9171,-2151.869C-783.90784,-2156.9226,-797.39264,-2164.3523,-805.18475,-2168.8125C-835.45325,-2185.7559,-859.10754,-2193.1514,-888.72516,-2195.1426C-892.73895,-2195.3708,-897.4048,-2195.4783,-902.58215,-2195.4783C-954.9008,-2195.4783,-1059.462,-2184.523,-1071.4104,-2176.8613C-1073.2009,-2175.6592,-1085.7556,-2173.5215,-1099.2097,-2171.9785C-1147.3455,-2166.4277,-1187.402,-2160.0088,-1196.6617,-2156.3867C-1199.0509,-2155.4814,-1209.5143,-2153.9492,-1219.6803,-2153.0166C-1225.5646,-2152.514,-1229.6128,-2152.173,-1232.3981,-2152.173C-1238.2463,-2152.173,-1238.526,-2153.6755,-1238.5422,-2158.3352C-1238.5736,-2167.381,-1248.593,-2172.0007,-1263.1292,-2172.0007C-1276.4691,-2172.0007,-1293.6132,-2168.11,-1310.3322,-2160.18C-1318.0953,-2156.265,-1321.3717,-2152.3655,-1324.0323,-2143.3833C-1326.3951,-2134.7017,-1330.8605,-2128.7036,-1340.4069,-2121.4927C-1347.5675,-2116.3823,-1357.7081,-2107.9731,-1362.777,-2103.4683C-1367.8448,-2098.6655,-1376.5001,-2093.2515,-1382.1744,-2090.8394C-1387.8501,-2088.726,-1393.522,-2085.7153,-1395.3115,-2084.2134C-1396.8027,-2083.0122,-1400.3882,-2081.8032,-1403.0801,-2081.7944C-1406.0708,-2081.7837,-1408.7593,-2080.8765,-1409.3525,-2079.3794C-1409.6475,-2078.1812,-1421.5884,-2071.56,-1435.6221,-2064.6323C-1466.0778,-2049.571,-1480.9962,-2039.0515,-1513.798,-2010.5232C-1546.0039,-1982.5946,-1602.0427,-1927.3671,-1613.9536,-1912.0712C-1618.7163,-1905.4745,-1633.0105,-1887.4794,-1645.2195,-1871.8828C-1657.7277,-1856.2872,-1670.2284,-1838.5969,-1673.1976,-1832.3059C-1676.1656,-1825.7151,-1679.4381,-1820.6194,-1680.6344,-1820.6155C-1682.13,-1820.6106,-1683.0199,-1818.513,-1683.0116,-1816.1194C-1683.0033,-1813.7268,-1685.3744,-1807.4377,-1688.3468,-1802.0442C-1691.319,-1796.6506,-1697.5521,-1782.8694,-1702.2972,-1771.1877C-1707.0431,-1759.8059,-1711.7914,-1749.0217,-1713.2816,-1747.5217C-1714.4718,-1745.7229,-1715.6556,-1742.1301,-1715.6464,-1739.4377C-1715.6361,-1736.4475,-1716.5238,-1733.7512,-1717.7184,-1733.1497C-1722.7955,-1731.0383,-1742.3689,-1682.8158,-1742.3357,-1673.2445C-1742.3252,-1670.2533,-1743.5132,-1667.8568,-1744.7095,-1667.8519C-1748.5979,-1667.8392,-1753.3025,-1644.4935,-1757.0691,-1609.4847C-1759.0986,-1590.9341,-1763.5039,-1567.5884,-1767.6521,-1556.2085C-1771.5007,-1544.8296,-1774.7461,-1531.9575,-1774.7295,-1527.1714C-1774.7129,-1522.3862,-1776.1917,-1517.5952,-1777.6843,-1516.6929C-1779.4756,-1515.7896,-1780.6514,-1509.8032,-1780.6306,-1503.8218C-1780.5952,-1493.6528,-1784.7058,-1471.5045,-1788.2605,-1461.6217C-1788.6001,-1460.3594,-1789.1616,-1459.7114,-1790.0801,-1459.7114C-1791.5573,-1459.7114,-1793.9576,-1461.3877,-1797.843,-1464.8785C-1809.8787,-1476.0677,-1818.8444,-1481.3865,-1826.2291,-1481.3865C-1827.4977,-1481.3865,-1828.7196,-1481.2295,-1829.9023,-1480.9185C-1837.9707,-1478.7974,-1840.031,-1469.2184,-1834.3098,-1458.1715C-1832.5039,-1454.8883,-1829.7922,-1449.2145,-1827.9851,-1445.6324C-1824.9758,-1440.2584,-1825.5676,-1438.4615,-1832.4292,-1433.3531C-1840.7832,-1427.3424,-1842.5486,-1418.9615,-1836.251,-1414.1979C-1834.4502,-1412.4088,-1826.0681,-1410.3444,-1817.9895,-1409.4762C-1797.6438,-1407.4528,-1792.2246,-1397.3014,-1810.1621,-1394.8463C-1815.843,-1394.2291,-1817.9282,-1391.8287,-1818.5059,-1385.8453C-1819.3705,-1378.7281,-1818.4933,-1377.4927,-1812.0748,-1377.4927C-1812.016,-1377.4927,-1811.9568,-1377.4928,-1811.897,-1377.493L-1811.8688,-1377.493C-1807.6652,-1377.493,-1797.8104,-1374.2426,-1790.0371,-1370.0917C-1781.9478,-1366.2313,-1773.2607,-1362.3729,-1770.5657,-1361.4852C-1767.8708,-1360.5975,-1763.9619,-1354.6288,-1761.8452,-1348.0565C-1759.7285,-1341.1876,-1757.0195,-1335.8153,-1755.5238,-1335.8153L-1755.5184,-1335.8153C-1754.3232,-1335.8153,-1753.1216,-1333.7272,-1753.1133,-1331.3368C-1753.105,-1328.9442,-1751.593,-1324.164,-1749.4888,-1321.1805C-1746.7815,-1316.703,-1746.771,-1313.7128,-1749.4412,-1307.4218C-1755.3784,-1294.5399,-1753.5598,-1287.6669,-1741.2568,-1276.0448C-1734.6548,-1269.786,-1725.3372,-1256.6581,-1719.9192,-1246.8065L-1710.585,-1228.8936L-1716.8254,-1217.207C-1720.0928,-1210.6152,-1726.3435,-1201.9199,-1730.5173,-1198.0176C-1739.7593,-1189.3115,-1746.5947,-1176.7256,-1746.5667,-1168.6504C-1746.5542,-1165.0615,-1749.2317,-1160.8643,-1752.5144,-1158.7588C-1755.7971,-1156.6543,-1758.4736,-1152.1582,-1758.4612,-1148.5693C-1758.4487,-1144.9795,-1761.419,-1138.9873,-1765.2935,-1135.0859C-1776.6189,-1123.3818,-1785.2439,-1109.294,-1785.2222,-1103.0127C-1785.1931,-1094.6378,-1776.4641,-1078.8165,-1769.8726,-1075.5499C-1761.7815,-1071.091,-1762.6477,-1062.1144,-1772.1948,-1055.2023C-1779.9517,-1049.4933,-1780.5444,-1047.9952,-1779.877,-1027.9581C-1779.5374,-1016.29407,-1780.3992,-1006.1212,-1781.8916,-1005.2189C-1782.3193,-1004.9446,-1782.9202,-1004.80676,-1783.6993,-1004.80676C-1788.9008,-1004.80676,-1802.0514,-1010.94745,-1824.7266,-1023.6144C-1834.6067,-1028.9594,-1844.1849,-1033.4093,-1846.5883,-1033.4093L-1846.621,-1033.4093C-1849.0004,-1033.4093,-1850.786,-1034.5964,-1850.7914,-1036.087C-1850.8007,-1038.7784,-1857.985,-1040.548,-1889.7072,-1045.5227C-1896.0984,-1046.5507,-1900.1855,-1047.5354,-1903.5231,-1047.5354C-1911.5939,-1047.5354,-1915.2813,-1041.777,-1936.5665,-1016.94653C-1957.4178,-992.3469,-1969.5686,-960.00323,-1966.1978,-936.6839C-1964.666,-926.222,-1965.8477,-922.0296,-1973.2866,-910.9378C-1981.3218,-899.24445,-1981.9084,-895.9525,-1981.2397,-875.6156C-1980.8931,-861.85876,-1982.0552,-851.98474,-1984.1416,-849.8832C-1988.3142,-845.682,-1988.8386,-824.4437,-1984.9453,-822.9613C-1983.449,-822.66833,-1981.9377,-818.1869,-1981.6211,-813.1029C-1980.676,-799.3481,-1981.2649,-796.65375,-1985.4521,-796.6391C-1987.845,-796.6313,-1994.1042,-790.3276,-1999.4609,-782.53265C-2005.1157,-774.4379,-2014.6453,-762.44086,-2020.9023,-755.54047C-2027.1584,-748.3393,-2032.2183,-741.143,-2032.2119,-739.34906C-2032.2004,-736.059,-2062.2815,-699.1655,-2073.6108,-688.6577C-2076.2947,-686.25543,-2081.6543,-679.358,-2085.822,-673.6607C-2089.6904,-667.9644,-2100.4092,-653.86975,-2109.6416,-642.4713C-2125.1272,-622.9772,-2140.599,-599.5924,-2144.154,-589.7106C-2145.043,-587.3141,-2146.821,-582.5231,-2148.305,-579.22815C-2149.49,-575.9332,-2152.451,-567.24963,-2154.5186,-559.76434C-2156.5864,-552.27997,-2159.2534,-545.0915,-2160.7424,-543.29266C-2161.9338,-541.79266,-2163.1155,-537.60126,-2163.102,-533.71356C-2163.073,-525.33856,-2179.1692,-509.43036,-2197.98,-500.09247C-2205.7417,-495.8786,-2218.576,-488.0573,-2226.0347,-482.6472C-2242.1465,-471.2263,-2288.9404,-423.80643,-2298.4607,-409.117C-2310.958,-390.5291,-2332.0403,-346.19028,-2342.407,-316.84262C-2345.6658,-307.85825,-2349.2197,-297.67563,-2350.7039,-294.3807C-2352.1877,-291.0858,-2353.9617,-285.09753,-2355.1436,-280.90613C-2356.0261,-276.7157,-2358.3909,-268.6317,-2359.8667,-262.9442C-2363.1184,-251.86609,-2364.889,-244.98035,-2372.84,-209.06044C-2375.4895,-196.78897,-2379.3237,-181.22256,-2380.7961,-174.63762C-2382.269,-168.05168,-2384.62,-156.08,-2386.0872,-147.69917C-2392.5425,-111.78512,-2399.0032,-77.36716,-2404.0151,-56.413067C-2406.0776,-47.431625,-2407.8267,-34.265614,-2407.8027,-27.38671C-2407.7676,-17.217768,-2408.9543,-14.52148,-2413.1416,-14.506831C-2417.03,-14.493159,-2418.517,-12.095698,-2418.4963,-6.1142554C-2418.4807,-1.6279292,-2419.6594,3.4619126,-2420.8508,4.9609356C-2422.0408,6.7597632,-2425.009,13.350581,-2427.0798,19.937492C-2433.8833,41.795883,-2446.0352,73.8408,-2448.7168,76.84177C-2449.9077,78.34177,-2451.0896,82.532196,-2451.0771,86.12204C-2451.0637,90.009735,-2452.2466,93.90329,-2454.038,94.80661C-2455.8296,95.708954,-2457.0112,99.90133,-2456.9978,103.79C-2456.9844,107.6777,-2458.4653,111.87008,-2459.9578,112.77242C-2461.7493,113.67672,-2462.906,125.04585,-2462.8625,137.60738C-2462.765,165.72308,-2469.718,230.65178,-2476.193,260.8832C-2478.5435,273.1547,-2481.7764,289.61612,-2482.946,297.3964C-2484.1152,305.17712,-2487.3743,314.1615,-2490.0557,317.162C-2497.803,325.56335,-2499.8164,348.9003,-2493.8032,357.85245C-2491.097,362.03018,-2488.975,370.09854,-2488.9553,375.78116C-2488.9355,381.46426,-2487.4207,387.1415,-2485.922,388.0341C-2484.1243,388.9247,-2482.9155,392.51016,-2482.904,395.8002C-2482.8938,398.7914,-2481.6794,403.8715,-2479.8748,406.85587C-2467.8352,428.64835,-2455.7354,467.78845,-2459.3088,472.28748C-2462.2864,476.1859,-2461.9717,480.67175,-2455.5818,512.05457C-2451.324,532.3788,-2451.3093,536.5663,-2455.426,556.9188C-2460.7134,584.7538,-2460.701,588.34314,-2453.2205,589.21375C-2452.4146,589.35315,-2451.6836,589.42523,-2451.0188,589.42523C-2447.4866,589.42523,-2445.8113,587.3908,-2444.5693,582.6039C-2443.3845,577.65845,-2442.3706,575.0094,-2441.5032,575.0094C-2438.4854,575.0094,-2437.2395,607.07666,-2436.7332,686.06525C-2435.8435,856.2489,-2430.1943,1018.93933,-2420.1147,1165.4633C-2416.1643,1223.4402,-2413.3726,1263.5084,-2411.0369,1293.2378L-2411.013,1293.2378L-206.74025,1293.238L-206.74025,1293.238C-215.14758,1276.6522,-224.71526,1256.1144,-224.72517,1253.256C-224.73346,1250.8677,-225.93234,1249.0797,-227.72153,1249.0797L-227.73836,1249.0797C-229.23154,1249.0797,-230.72714,1247.5914,-230.73299,1245.7999C-230.73836,1244.3043,-235.5655,1232.357,-241.5909,1219.8156C-252.73932,1196.2257,-259.97174,1180.6974,-267.8111,1162.4796C-272.6363,1151.1305,-281.37747,1131.7198,-291.02347,1110.2179C-294.3394,1102.7517,-297.05423,1096.1814,-297.05765,1095.2844C-297.06058,1094.387,-301.88284,1083.636,-307.6099,1071.0935C-313.335,1058.8503,-318.1602,1047.5012,-318.1641,1046.3049C-318.1685,1045.1086,-319.9805,1040.03,-322.38965,1035.2532C-330.5244,1018.23267,-341.98438,991.05444,-351.34082,966.8597C-359.49316,944.7552,-363.41354,935.4964,-366.72604,928.92804C-368.2324,925.9417,-369.4443,921.4598,-369.4526,919.0672C-369.4609,916.67413,-370.67233,912.1917,-372.17868,909.20636C-373.68307,906.51984,-378.51022,894.57263,-383.0361,883.22205C-387.56345,871.5731,-392.38864,859.9247,-393.894,857.23816C-395.39987,854.2528,-396.6118,849.7704,-396.6201,847.3773C-396.6284,844.98474,-397.8403,840.5028,-399.34616,837.5165C-400.85104,834.82996,-404.1733,825.5692,-406.5937,817.50183C-409.31488,809.13666,-414.14838,795.39496,-417.4682,786.73285C-420.7895,777.7714,-423.81976,766.41595,-424.4355,761.33344C-425.3642,752.3637,-424.768,751.7636,-411.91498,749.3261C-404.44284,747.8046,-391.58786,745.96576,-383.5156,745.04C-375.14304,744.413,-367.37396,742.29236,-365.88324,740.7914C-364.09418,739.2894,-358.11615,738.07263,-352.43304,738.0526C-346.75046,738.0331,-338.08102,736.8065,-333.0029,734.9945C-319.5576,730.76013,-249.61624,717.058,-217.62994,712.162C-210.15681,710.93933,-201.48885,709.1146,-198.20418,707.6078C-194.91853,706.3998,-186.85263,703.68005,-180.27841,701.8627C-154.87903,694.8954,-135.1598,688.84515,-128.589,686.1303C-124.70619,684.6215,-118.428856,683.40326,-114.54067,683.3896C-110.6525,683.3764,-106.46988,682.16547,-105.57828,680.3671C-104.68717,678.56976,-98.410805,677.3515,-92.12956,677.33C-85.84881,677.30804,-79.87078,676.09125,-78.97869,674.5922C-76.300964,670.39545,-58.662792,667.94183,-12.909902,665.3896C26.264383,663.1606,57.04805,656.4736,75.85711,646.5375C78.84245,645.0321,83.32536,643.8202,85.71793,643.8119C88.11051,643.8036,92.59244,642.5912,95.578766,641.0858C98.26529,639.58093,116.78724,633.2352,136.50597,626.8861C156.22421,620.536,173.54988,614.1952,175.04109,612.9935C176.83162,611.7909,180.41658,610.5819,183.10847,610.57263C185.80035,610.56335,193.26862,607.84564,199.83795,604.832C220.73831,594.29095,243.73537,584.6396,257.47998,580.70404C264.95068,578.5844,273.61374,575.5634,276.89987,574.3554C280.1855,573.14734,288.85004,570.4252,296.31976,568.306C303.7914,566.4852,312.15518,563.4657,314.8422,561.9608C317.82803,560.45447,321.413,559.246,323.20743,559.2396C324.70303,559.23425,337.5453,553.806,351.28064,547.1781C391.2928,527.8969,421.4114,501.77142,433.8831,475.70602C437.74393,467.9165,441.30933,461.0244,442.20386,460.12402C443.0979,459.22363,445.4773,455.32715,447.25708,451.1338C457.64478,427.7676,473.9836,395.70758,476.07443,394.8028C477.26877,394.20074,478.1589,392.10406,478.15158,390.0103C478.13596,385.524,515.37225,342.0255,554.41266,301.21204C572.2935,282.6061,582.418,269.7101,583.295,263.7248C584.4737,258.63593,585.939,249.95721,587.1158,244.27022C588.29205,238.5832,600.1626,211.62279,613.82666,184.3577C627.1914,157.09357,642.6298,124.1395,647.6689,110.96081C652.70795,97.78309,663.69037,73.51847,671.4096,57.040947C679.42816,40.56245,686.539,21.096655,687.4101,13.616195C692.36316,-24.387667,692.61316,-38.445267,688.98627,-49.499943C685.3593,-60.253834,685.35443,-61.749928,691.6127,-68.35148C696.3802,-73.45205,699.04474,-81.23915,700.78986,-95.60144C702.2459,-106.97252,704.6043,-116.85043,706.0965,-117.75278C726.3884,-131.28304,736.4983,-148.36699,736.4236,-169.90211C736.3884,-180.07106,734.57837,-184.55151,728.5769,-190.21265C722.8073,-195.46507,720.1232,-196.88786,704.82495,-196.88786C701.0291,-196.88786,696.4567,-196.80026,690.868,-196.66185C686.9235,-196.59502,683.4445,-196.55827,680.39703,-196.55827C666.3454,-196.55827,661.46826,-197.3395,662.4437,-199.55443C663.03455,-201.65111,667.1742,-215.42354,671.60974,-230.09442C676.04425,-245.06511,680.7801,-259.43814,682.2664,-262.1354C684.0501,-265.13248,685.2308,-269.62268,685.2225,-272.01526C685.2142,-274.40784,686.39484,-278.89905,687.8802,-281.89514C692.6336,-291.18417,712.74054,-357.95267,720.40704,-389.68405C723.3567,-401.65768,725.4226,-409.74066,736.93964,-452.2523C741.0739,-467.5208,744.3122,-482.48758,744.30096,-485.77762C744.28925,-489.06766,745.4733,-492.66043,747.2648,-493.56375C749.0558,-494.46805,750.23694,-498.95828,750.2228,-503.14575C750.20715,-507.63208,751.37756,-515.1135,753.15393,-520.20435C754.63196,-525.2942,757.8795,-537.56854,760.2379,-547.4465C762.5968,-557.3254,766.7296,-572.89276,769.39075,-581.8751C772.0514,-590.85754,775.0045,-601.6349,775.8873,-605.8263C776.4713,-610.0148,778.24475,-616.00305,779.7291,-619.2979C782.39905,-625.5889,785.0514,-636.96295,787.6876,-653.1241C788.56604,-658.5108,790.34283,-663.60156,791.8355,-664.5039C793.3277,-665.40625,794.5118,-668.999,794.4996,-672.58887C794.4869,-676.17773,797.73346,-688.751,801.8809,-700.13184C805.7286,-711.8105,809.27545,-724.0859,809.26276,-727.67474C809.25055,-731.2636,810.43317,-735.1562,812.2247,-736.0595C813.71735,-736.9628,815.1993,-740.8554,815.18805,-744.14545C815.16705,-750.1278,819.00543,-764.4979,824.34235,-777.97546C825.5274,-781.2694,827.30084,-787.2577,827.8848,-791.4471C829.6485,-800.4266,841.4697,-841.4431,844.73047,-849.82983C847.4009,-856.12085,850.05225,-867.7937,852.68896,-883.65594C853.5679,-889.04266,855.3447,-894.1325,856.8369,-895.0358C858.3296,-895.9382,859.5112,-900.1296,859.49646,-904.31696C859.4813,-908.8033,860.65125,-916.2857,862.1293,-921.3746C863.6068,-926.46436,866.5575,-938.14014,868.3207,-947.11865C870.38367,-956.0991,873.03064,-968.9692,874.8026,-975.5561C876.27527,-982.14105,878.6283,-993.5141,880.098,-1000.9975C881.56775,-1008.47986,884.2191,-1020.15466,885.68933,-1027.3373C887.46027,-1034.222,890.11456,-1044.9994,891.5882,-1051.2855C893.0628,-1057.2728,895.7205,-1067.1526,897.4954,-1072.8411C898.971,-1078.5295,902.221,-1090.2053,904.5833,-1098.888C906.9471,-1107.2698,911.09503,-1118.6506,913.7679,-1124.0442C916.4412,-1129.4368,918.5164,-1134.8274,918.51105,-1136.3235C918.4842,-1144.0997,949.1007,-1198.9404,954.7765,-1201.0547C955.9708,-1201.6563,957.1598,-1203.7539,957.15344,-1205.5488C957.4332,-1211.2323,978.5943,-1232.8417,990.5357,-1239.164C996.8067,-1242.1757,1004.5601,-1248.7831,1007.8345,-1253.2821C1011.1089,-1257.7792,1016.4795,-1261.6864,1019.76953,-1261.6971C1022.76025,-1261.7079,1028.439,-1262.9237,1032.3223,-1264.4335C1036.2051,-1265.9423,1049.3506,-1270.1747,1061.6005,-1274.1053C1073.8495,-1278.037,1089.0824,-1284.072,1095.0511,-1287.9802C1101.3182,-1291.8904,1110.58,-1294.9128,1115.9637,-1294.9324C1123.4413,-1294.9578,1129.4105,-1298.5681,1140.1433,-1308.4763C1148.1931,-1315.9812,1157.1453,-1321.9939,1160.1365,-1322.0046C1163.1272,-1322.0144,1167.6057,-1324.4226,1169.6873,-1327.7205C1171.7708,-1330.7185,1176.8435,-1334.325,1181.0261,-1335.5359C1185.2097,-1336.7468,1192.6731,-1340.6619,1197.4451,-1344.5671C1202.5178,-1348.1736,1211.1764,-1352.3914,1216.8551,-1353.607C1230.3048,-1356.3453,1250.901,-1368.3805,1261.3312,-1379.483C1276.5297,-1395.3882,1280.0238,-1422.9174,1271.8192,-1459.9769C1265.1332,-1490.4622,1265.9672,-1508.7102,1276.9135,-1543.4435C1285.1937,-1570.6896,1288.1635,-1576.6827,1300.0858,-1588.6876C1315.8827,-1604.5947,1336.1829,-1615.7314,1349.9417,-1615.7793C1355.0261,-1615.7969,1362.2,-1617.0186,1366.0833,-1618.5273C1390.2776,-1627.8828,1401.0275,-1633.0059,1411.1749,-1639.3223C1421.6191,-1646.237,1422.2119,-1647.7341,1422.1636,-1661.7917C1422.1138,-1676.1482,1425.6475,-1692.0134,1431.291,-1703.3981C1432.7764,-1706.3942,1433.9072,-1725.2418,1433.8379,-1745.2819L1433.71,-1782.0698L1443.557,-1788.6841C1448.6302,-1791.9917,1460.5702,-1798.9126,1469.5262,-1803.729C1478.4838,-1808.2466,1486.5438,-1812.7612,1487.4379,-1813.6616C1488.3324,-1814.562,1496.3925,-1819.0767,1505.3484,-1823.8931C1535.2029,-1839.849,1540.575,-1843.1576,1585.0372,-1872.9232C1609.2074,-1889.1583,1630.3959,-1902.9893,1632.1879,-1903.5938C1633.6815,-1904.1982,1637.2606,-1907.2012,1640.2421,-1909.9033C1643.224,-1912.6055,1649.4901,-1916.8145,1653.9681,-1919.2227C1658.446,-1921.6309,1662.6252,-1924.0391,1663.5183,-1925.2383C1670.9666,-1933.6387,1681.7224,-1936.9658,1700.8645,-1937.0322C1736.4567,-1937.1553,1755.8663,-1946.4961,1756.107,-1963.246C1756.0944,-1966.8348,1757.5763,-1970.7284,1759.069,-1971.6307C1760.8605,-1972.535,1762.0089,-1986.2968,1761.9518,-2002.747L1761.8512,-2031.7595L1774.694,-2037.1882C1790.2236,-2043.822,1798.5864,-2047.1414,1807.5474,-2050.7605C1811.1309,-2052.2693,1818.896,-2055.5867,1825.168,-2058.2996C1831.1406,-2061.0115,1836.8159,-2063.1257,1837.7133,-2063.1287C1838.6107,-2063.1316,1846.0785,-2065.8503,1853.8422,-2069.4656C1861.6068,-2073.0818,1871.163,-2077.3025,1875.3451,-2078.8132C1879.5262,-2080.6218,1885.201,-2083.034,1887.8876,-2084.5388C1891.1895,-2086.2705,1893.9677,-2087.1223,1896.8695,-2087.1223C1900.5269,-2087.1223,1904.3806,-2085.769,1909.7268,-2083.119C1920.8127,-2077.4744,1923.221,-2072.9968,1921.1624,-2062.82C1919.756,-2055.0747,1919.9735,-2054.4792,1930.2644,-2054.4792C1930.7106,-2054.4792,1931.1757,-2054.4805,1931.6604,-2054.4822C1938.5393,-2054.5056,1944.8152,-2056.0232,1945.7068,-2057.5222C1946.5984,-2059.32,1949.884,-2060.527,1952.5759,-2060.5369C1957.6603,-2060.5544,1992.307,-2074.4321,2000.3651,-2079.5454C2002.1552,-2081.0464,2003.9369,-2084.643,2003.9257,-2087.933C2003.9103,-2092.366,2001.8616,-2093.579,1993.4452,-2093.579C1993.3438,-2093.579,1993.2413,-2093.5789,1993.1381,-2093.5786C1987.4554,-2093.558,1980.2816,-2092.3374,1977.2968,-2090.5317C1976.0287,-2089.892,1974.8972,-2089.556,1973.7936,-2089.556C1971.2594,-2089.556,1968.8723,-2091.3293,1965.3163,-2095.276L1958.7101,-2102.7302L1968.5394,-2114.429C1973.9017,-2120.7288,1983.4481,-2127.9397,1989.4208,-2130.6536C1995.3944,-2133.0667,2007.0414,-2138.1917,2014.805,-2141.8079C2022.5701,-2145.1252,2031.8274,-2149.345,2035.113,-2150.552C2038.3992,-2151.76,2047.3586,-2155.679,2055.1228,-2159.2961C2062.8865,-2162.9114,2070.0554,-2165.6282,2070.953,-2165.631C2071.551,-2165.633,2079.3162,-2168.9504,2087.9763,-2172.8694C2121.7212,-2188.2405,2132.1738,-2192.763,2133.6694,-2192.7678C2135.4639,-2192.7747,2167.7163,-2207.2424,2174.5825,-2210.8567C2177.5676,-2212.66,2182.0496,-2213.8718,2184.4426,-2213.8806C2186.8352,-2213.8884,2188.9236,-2215.3923,2188.9187,-2216.8875C2188.9124,-2218.6824,2191.0022,-2219.8855,2193.3948,-2219.8943C2195.7874,-2219.902,2200.2693,-2221.114,2203.2551,-2222.6199C2205.9421,-2224.1248,2211.6162,-2226.5378,2215.7974,-2228.3455C2219.9785,-2230.155,2229.2373,-2234.076,2236.7026,-2237.3923C2252.232,-2244.325,2271.3452,-2252.7664,2280.0073,-2256.0867C2287.1763,-2258.8025,2301.212,-2265.1326,2321.818,-2274.1775C2330.18,-2277.7957,2339.4387,-2281.7156,2342.7234,-2283.2224C2354.6716,-2287.7507,2373.487,-2295.8923,2399.4685,-2307.3474C2415.2957,-2314.5808,2429.6313,-2320.6118,2444.2651,-2326.9448C2449.3423,-2329.0562,2460.9897,-2334.1812,2470.545,-2338.7007C2480.1016,-2342.9204,2488.4639,-2346.5396,2489.062,-2346.5415C2489.9595,-2346.5444,2497.1284,-2349.2612,2504.892,-2352.8774C2512.6563,-2356.4937,2521.6152,-2360.4126,2524.9014,-2361.6196C2528.1855,-2363.1274,2536.8474,-2366.7466,2544.3132,-2370.063C2560.1423,-2376.9966,2579.2546,-2385.438,2587.618,-2388.7573C2590.904,-2389.9644,2601.3552,-2394.7876,2610.9116,-2399.007C2620.468,-2403.2278,2628.8293,-2406.8457,2629.428,-2406.8486C2630.3254,-2406.8516,2639.2844,-2411.0693,2649.4368,-2415.8906C2659.5881,-2421.0098,2670.342,-2424.9355,2673.3333,-2424.9463C2676.3245,-2424.956,2678.7112,-2426.46,2678.7063,-2427.956C2678.7004,-2429.75,2680.4905,-2430.9521,2682.5842,-2430.96C2684.678,-2430.9668,2691.848,-2433.3857,2698.4163,-2436.6982C2710.6594,-2442.4238,2729.7725,-2450.8652,2739.9268,-2455.087C2743.213,-2456.294,2752.7695,-2460.5146,2760.832,-2464.1328C2769.1943,-2468.0498,2781.7373,-2473.4775,2789.2031,-2476.793C2796.669,-2480.1094,2807.421,-2484.6328,2813.0947,-2487.3447C2818.7683,-2489.7568,2826.2341,-2493.0732,2829.5203,-2494.2813C2840.8699,-2498.8066,2858.4907,-2506.644,2907.1653,-2528.9458C2916.423,-2533.1655,2924.4866,-2536.484,2925.384,-2536.4868C2926.2815,-2536.4897,2935.2415,-2540.4097,2945.3938,-2545.23C2964.2063,-2553.9692,2984.2148,-2563.0112,3013.1816,-2575.9731C3062.7563,-2597.9795,3068.1196,-2603.3818,3065.6401,-2628.497C3064.3882,-2644.6445,3057.1597,-2659.2751,3040.935,-2680.155C3031.6216,-2692.0867,3030.7144,-2695.075,3030.651,-2713.32C3030.563,-2738.743,3025.7373,-2750.3916,3008.333,-2766.4824C2996.2551,-2777.5996,2993.4373,-2778.9456,2980.3171,-2778.9456 Z"/> </g> </g> </svg>