<?xml version="1.0" encoding="UTF-8"?>
<svg viewBox="0 0 149.90625 150.5" xmlns="http://www.w3.org/2000/svg">
 <g transform="translate(-110.47 -57.219)">
  <path d="m185.44 57.219c-41.046 0-74.367 33.086-74.969 74.125l144-28.312c-11.422-26.926-38.025-45.812-69.031-45.812zm42.156 60.594-26.562 5.2188c0.0344 0.2752 0.0708 0.5678 0.125 0.8438 1.3506 6.8708 8.3975 11.227 15.75 9.7813s12.226-8.1605 10.875-15.031c-0.0542-0.2759-0.1153-0.5448-0.1875-0.8125zm-66 12.969-26.562 5.2188c0.0344 0.2752 0.0708 0.5678 0.125 0.8438 1.3506 6.8708 8.3975 11.227 15.75 9.7813s12.226-8.1605 10.875-15.031c-0.0542-0.2759-0.1153-0.5448-0.1875-0.8125zm98.781 3.8438-143.56 28.219c11.64 26.42 37.984 44.875 68.625 44.875 40.701 0 73.798-32.534 74.938-73.094z"/>
 </g>
</svg>
